<?xml version="1.0" encoding="UTF-8" standalone="no"?>
<svg width="300" height="161" xmlns="http://www.w3.org/2000/svg" xmlns:xlink="http://www.w3.org/1999/xlink">
 <desc>Logo of Sheffield Hallam University</desc>
 <g>
   <path fill="#b40756" fill-rule="nonzero" id="path34" d="m44.95567,96.43549l0,-5.67223l-1.96101,0c-2.31013,0 -2.87012,-0.97927 -2.87012,-2.87007l0,-28.9207l3.91975,0l0,-5.67206l-20.23571,0l0,5.67206l1.96101,0c2.31013,0 2.87009,0.97938 2.87009,2.87007l0,9.31301l-12.3237,0l0,-12.18309l3.91973,0l0,-5.67206l-20.23571,0l0,5.67206l1.96102,0c2.31013,0 2.87009,0.97938 2.87009,2.87007l0,28.9207l-3.92201,0l0,5.67223l20.23798,0l0,-5.67223l-1.96101,0c-2.31013,0 -2.87008,-0.97927 -2.87008,-2.87007l0,-10.22443l12.3237,0l0,13.0945l-3.922,0l0,5.67223l20.23799,0l-0.00002,0zm33.54103,0l0,-4.8311l-2.45065,0c-1.33081,0 -2.0313,-0.55979 -2.0313,-1.96093l0,-14.21436c0,-8.96399 -5.74245,-11.9747 -13.93558,-11.9747c-3.57061,0 -7.98228,0.76867 -11.41233,2.02894l0,5.95351c4.20084,-1.68008 7.49262,-2.17202 9.94328,-2.17202c2.94036,0 4.62027,1.26055 4.62027,4.1329l0,1.96108c-10.29244,0.20839 -17.5742,4.34122 -17.5742,11.69337c0,7.2114 4.90136,10.29472 10.3627,10.29472c3.92202,0 7.70343,-1.89069 9.17248,-3.4324c0.84107,1.82039 2.87238,2.52099 5.25278,2.52099l8.05256,0zm-15.26632,-7.56291c-0.55999,0.48972 -2.09928,1.19026 -3.50034,1.19026c-2.38041,0 -3.85175,-1.53934 -3.85175,-3.85178c0,-3.08084 2.73178,-5.60194 7.35208,-5.88078l0,8.5423l0.00002,0zm34.88087,7.56291l0,-4.8311l-1.33072,0c-1.6119,0 -2.38271,-0.3513 -2.38271,-2.03111l0,-34.7246c0,-1.60968 -0.76851,-2.09935 -2.65924,-2.09935c-2.52096,0 -6.72407,0.48967 -13.30535,0.48967l0.97939,4.90134l4.2031,0l0,33.46405l-3.64311,0l0,4.8311l18.13869,0l-0.00005,0z"/>
   <path fill="#b40756" fill-rule="nonzero" id="path38" d="m37.23859,34.10337c0,-3.50032 -1.40104,-6.23218 -3.57061,-8.33369c-1.40104,-1.33073 -3.71116,-2.59128 -5.74245,-3.57039l-5.32304,-2.45064c-4.34141,-2.03144 -6.72181,-3.50286 -6.72181,-6.09176c0,-2.31244 2.31013,-3.92212 5.18248,-3.92212c2.03128,0 3.85171,0.84118 4.97163,1.96114c0.97936,0.97938 1.67989,2.38052 2.16955,4.13062l0.56222,2.17185c0.27887,0.97927 0.69827,1.67981 2.02902,1.67981l3.71115,0l0,-16.4565l-5.88072,0l-0.28113,2.17191c-1.96098,-1.82056 -5.18248,-3.01082 -9.24277,-3.01082c-8.05257,0 -14.70637,4.97163 -14.70637,13.30311c0,5.46356 3.22148,9.87524 9.94556,12.67502l5.18022,2.17196c4.06258,1.67998 5.81274,3.0106 5.81274,5.53164c0,0.70043 -0.28111,1.60952 -0.91135,2.23993c-0.90909,0.91119 -2.52097,1.61173 -4.54998,1.61173c-4.41168,0 -7.21374,-2.38052 -7.98456,-6.72395l-0.27885,-1.53956c-0.28111,-1.67981 -0.91135,-2.03127 -2.66152,-2.03127l-3.64089,0l0,16.7354l5.883,0l0.41941,-2.45076c1.961,1.82051 5.67217,3.29193 9.59417,3.29193c10.71182,0 16.03487,-5.60205 16.03487,-13.09467m39.21318,12.25349l0,-4.83116l-1.33073,0c-1.60961,0 -2.38039,-0.27829 -2.38039,-2.03116l0,-15.47485c0,-3.57078 -0.97942,-6.23229 -2.73183,-7.91216c-1.82044,-1.82045 -4.54995,-2.73181 -7.42232,-2.73181c-2.72951,0 -6.02131,0.84112 -9.5919,3.57077l0,-12.1129c0,-1.6119 -0.77079,-2.10156 -2.66153,-2.10156c-2.52096,0 -6.72408,0.48966 -13.30534,0.48966l0.97937,4.90123l4.20311,0l0,33.40278l-3.6409,0l0,4.83116l17.99587,0l0,-4.83116l-1.19019,0c-1.6119,0 -2.38041,-0.34897 -2.38041,-2.03116l0,-16.66511c1.6096,-1.40108 3.35976,-2.31017 5.32075,-2.31017c2.23987,0 3.64091,1.19026 3.64091,3.91969l0,17.08675l-3.01065,0l0,4.83116l17.50616,0l0.00001,0zm30.62338,-16.7354c0,-9.03196 -5.04194,-16.24574 -14.6361,-16.24574c-10.01359,0 -16.17541,7.35215 -16.17541,17.08675c0,10.08401 5.67217,16.80569 16.03487,16.80569c5.18249,0 10.64381,-2.10151 13.58418,-4.83088l-2.7998,-4.55221c-2.38041,1.74994 -5.46134,2.86991 -8.47425,2.86991c-4.4797,0 -6.93265,-3.35962 -7.07092,-8.68272l19.3969,0c0.14055,-0.8388 0.14055,-1.60979 0.14055,-2.45081m-10.22441,-3.85177c0,0.49215 -0.07028,0.9817 -0.07028,1.47154l-9.10448,0c0.14055,-3.01077 1.05192,-7.84403 4.97391,-7.84403c3.64091,0 4.20085,3.8515 4.20085,6.37249m24.25523,-14.7064c0,-3.21904 1.961,-4.20075 4.69279,-4.20075c1.75014,0 3.57056,0.35146 5.18249,0.91142l0,-6.23218c-1.54166,-0.63014 -5.18249,-1.54172 -8.61483,-1.54172c-7.35206,0 -11.97462,3.57077 -11.97462,10.71426c0,0 0.03857,1.87713 0.91136,3.57271l-4.06255,0l0,4.90162l4.83334,0l0,22.33706l-3.64088,0l0,4.83116l18.13641,0l0,-4.83116l-1.33073,0c-1.61193,0 -2.38042,-0.55984 -2.38042,-2.03116l0,-20.3059l7.35206,0l-0.98166,-4.90162l-7.00069,0c-1.11086,-1.39184 -1.12218,-3.22374 -1.12218,-3.22374m49.46715,-4.97152c0,-3.43002 -2.80211,-5.46141 -6.02359,-5.46141c-3.21922,0 -6.02133,2.03138 -6.02133,5.46141c0,3.43246 2.80214,5.46356 6.02133,5.46356c3.22148,0 6.02359,-2.03111 6.02359,-5.46356m-24.99886,4.97152c0,-3.01065 1.6799,-4.20075 4.20085,-4.20075c1.96104,0 4.06262,0.48977 5.67216,0.98171l0.90909,-6.23202c-2.31012,-0.84118 -6.30011,-1.61218 -9.52162,-1.61218c-7.84401,0 -11.97455,3.99253 -11.97455,10.43315c0,0 -0.03632,1.43501 0.77078,3.85382l-4.80385,0l0.98161,4.90162l4.24165,0l0,22.33706l-3.64087,0l0,4.83116l18.13643,0l0,-4.83116l-1.33075,0c-1.61186,0 -2.38042,-0.5599 -2.38042,-2.03116l0,-20.3059l12.81334,0l0,22.33706l-3.64087,0l0,4.83116l18.13643,0l0,-4.83116l-1.33078,0c-1.6096,0 -2.38042,-0.34897 -2.38042,-2.03116l0,-23.59772c0,-1.6098 -0.77077,-2.10167 -2.66151,-2.10167c-2.52095,0 -8.05257,0.49188 -14.56355,0.49188l-6.93265,0c-0.65291,-1.31922 -0.70052,-3.22374 -0.70052,-3.22374m59.89783,18.55817c0,-9.03196 -5.04193,-16.24574 -14.63614,-16.24574c-10.0136,0 -16.1754,7.35215 -16.1754,17.08669c0,10.08407 5.67213,16.80575 16.03711,16.80575c5.18021,0 10.64386,-2.10151 13.58418,-4.83094l-2.79979,-4.55221c-2.38264,1.74994 -5.46362,2.86996 -8.47423,2.86996c-4.48196,0 -6.93266,-3.35968 -7.07323,-8.68277l19.39696,0c0.14056,-0.8388 0.14056,-1.6098 0.14056,-2.45081m-10.22447,-3.85178c0,0.49215 -0.06801,0.98171 -0.06801,1.47154l-9.10445,0c0.14055,-3.01076 1.04956,-7.84402 4.9716,-7.84402c3.6409,0 4.20085,3.8515 4.20085,6.37249m29.58728,20.58718l0,-4.83116l-1.33069,0c-1.61195,0 -2.38042,-0.34897 -2.38042,-2.03116l0,-34.66095c0,-1.6119 -0.7708,-2.10156 -2.6615,-2.10156c-2.52097,0 -6.7218,0.48966 -13.30531,0.48966l0.97932,4.90123l4.20316,0l0,33.40278l-3.64096,0l0,4.83116l18.13643,0l0.00003,0l-0.00003,0l-0.00003,0zm35.66992,0l0,-4.83116l-2.16965,0c-1.68213,0 -2.17188,-0.90892 -2.17188,-2.16948l0,-34.52263c0,-1.6119 -0.77078,-2.10156 -2.66147,-2.10156c-2.52097,0 -6.72182,0.48966 -13.30531,0.48966l0.98164,4.90123l4.20087,0l0,6.23218c-1.82045,-0.62792 -3.78143,-0.97938 -5.60194,-0.97938c-7.56288,0 -14.77437,5.60194 -14.77437,16.66528c0,10.50549 5.39096,17.22717 14.28465,17.22717c3.64096,0 6.93266,-1.54155 8.61252,-3.29166c0.91138,1.68203 3.08096,2.38035 5.39331,2.38035l7.2115,0l0.00006,0l0.00006,0zm-15.12582,-6.86232c-0.70055,0.56007 -1.89073,1.33073 -3.64093,1.33073c-2.80202,0 -5.53159,-2.38052 -5.53159,-10.6438c0,-8.68288 2.87006,-10.99283 5.67216,-10.99283c1.46899,0 2.94034,0.48955 3.50032,0.8388l0,19.4671l0.00003,0z"/>
   <path fill="#740232" fill-rule="nonzero" id="path42" d="m42.81873,107.77944l0,-5.67217l-19.3969,0l0,5.67217l1.89072,0c2.31013,0 2.94037,0.77072 2.94037,2.87006l0,20.44887c0,2.30994 -0.34911,4.06033 -1.19018,5.3206c-0.9794,1.54155 -2.66153,2.31238 -4.76081,2.31238c-1.75017,0 -3.64089,-0.84117 -4.62252,-2.24214c-1.2605,-1.89069 -1.33076,-3.85167 -1.33076,-8.75312l0,-19.95665l3.922,0l0,-5.67217l-20.23798,0l0,5.67217l1.89072,0c2.3124,0 2.94264,0.84095 2.94264,2.87006l0,18.62836c0,5.32072 1.11993,9.87309 4.69053,12.95404c2.87009,2.45053 7.42231,3.78136 12.46424,3.78136c5.95326,0 10.6438,-2.03148 13.30535,-5.11226c2.66153,-3.08107 3.57059,-7.42244 3.57059,-12.04494l0,-21.07668l3.922,0l-0.00002,0l0.00002,0.00005zm37.83485,37.46311l0,-4.83133l-1.33076,0c-1.6119,0 -2.38043,-0.2809 -2.38043,-2.03111l0,-15.4749c0,-3.57078 -0.98161,-6.23229 -2.7318,-7.91421c-1.82043,-1.8205 -4.55222,-2.72976 -7.42233,-2.72976c-2.7318,0 -6.02355,0.8388 -9.59416,3.57061l0,-1.04963c0,-1.61172 -0.77079,-2.10155 -2.66152,-2.10155c-2.52096,0 -6.7218,0.48983 -13.30306,0.48983l0.97937,4.90366l4.20086,0l0,22.33707l-3.6409,0l0,4.83133l17.8576,0l0,-4.83133l-1.05191,0c-1.60962,0 -2.38039,-0.34897 -2.38039,-2.03111l0,-16.66527c1.61187,-1.40092 3.36202,-2.31233 5.32304,-2.31233c2.23985,0 3.64088,1.19247 3.64088,3.92196l0,17.08675l-3.15119,0l0,4.83133l17.64676,0l-0.00005,0zm19.7891,0l0,-4.83133l-1.3308,0c-1.61185,0 -2.38041,-0.34897 -2.38041,-2.03111l0,-23.59789c0,-1.61172 -0.77078,-2.10155 -2.66148,-2.10155c-2.52099,0 -6.72183,0.48983 -13.30537,0.48983l0.98164,4.90366l4.20086,0l0,22.33707l-3.64091,0l0,4.83133l18.13642,0l0.00006,0l-0.00002,0l0.00002,0zm35.90108,-27.1684l-0.98164,-4.90366l-14.49554,0l0,4.90366l3.29174,0l-5.5316,16.38383l-4.97164,-13.44347c-0.63025,-1.68009 -0.2108,-2.94037 1.67988,-2.94037l1.40105,0l0,-4.90366l-18.20673,0l0,4.90366l3.5706,0l10.78436,27.1684l8.75311,0l9.31303,-24.64757c0.84108,-2.24214 1.8907,-2.52083 3.57289,-2.52083l1.82047,0l0,0l0.00003,0zm28.35854,10.43282c0,-9.03416 -5.04192,-16.24573 -14.6338,-16.24573c-10.01355,0 -16.17767,7.35204 -16.17767,17.08675c0,10.08163 5.67213,16.80586 16.03712,16.80586c5.1825,0 10.64377,-2.10158 13.58421,-4.83354l-2.7998,-4.54988c-2.38264,1.75011 -5.46359,2.87007 -8.47426,2.87007c-4.48201,0 -6.93266,-3.35963 -7.07324,-8.68272l19.39699,0c0.1405,-0.84123 0.1405,-1.60979 0.1405,-2.45081m-10.22212,-3.85171c0,0.4896 -0.07028,0.98159 -0.07028,1.47142l-9.10451,0c0.14058,-3.01071 1.05191,-7.84414 4.97163,-7.84414c3.64088,0 4.20316,3.85167 4.20316,6.37277m36.75577,-4.48208l0,-5.88073c0,-1.33056 -0.70055,-2.03127 -2.38042,-2.03127c-3.22148,0 -6.37267,1.68008 -8.40393,4.2712l0,-1.75022c0,-1.61172 -0.84106,-2.10155 -2.66153,-2.10155c-2.52097,0 -6.7218,0.48983 -13.30531,0.48983l0.98158,4.90366l4.20084,0l0,22.33701l-3.64085,0l0,4.83139l18.13643,0l0,-4.83139l-1.3308,0c-1.60956,0 -2.38039,-0.34891 -2.38039,-2.03105l0,-15.82635c3.01065,-1.95877 5.67215,-2.45065 8.40395,-2.45065c0.69815,0 1.82036,0 2.38034,0.07013m27.32932,16.31602c0,-5.11221 -2.7998,-7.84169 -7.28177,-9.80267l-4.97168,-2.17185c-2.87228,-1.26055 -3.92198,-2.02906 -3.92198,-3.64091c0,-1.60968 1.61188,-2.87012 3.85168,-2.87012c2.73181,0 4.76086,1.39876 5.1825,4.34139l0.20857,1.5395c0.21092,1.33057 0.77083,1.89058 2.38272,1.89058l2.65927,0l0,-12.60467l-3.85176,0l-0.34909,1.8205c-1.75017,-1.68009 -4.41168,-2.72976 -8.05255,-2.72976c-6.30244,0 -11.97459,3.85188 -11.97459,10.08385c0,5.391 3.29173,8.26355 7.77371,10.01367l4.41162,1.75015c3.08096,1.19009 3.99004,1.96109 3.99004,3.57062c0,1.47142 -1.60956,2.6615 -3.99004,2.6615c-3.50253,0 -5.95328,-1.75003 -6.44293,-4.83115l-0.21086,-1.26033c-0.27879,-1.61195 -0.7005,-1.82068 -2.45064,-1.82068l-2.66156,0l0,12.81361l3.85175,0l0.48967,-2.03137c2.52097,2.03137 5.60194,2.94267 9.03418,2.94267c7.00293,0 12.32375,-3.99225 12.32375,-9.66458m19.65083,8.75328l0,-4.83133l-1.33081,0c-1.61188,0 -2.3826,-0.34897 -2.3826,-2.03111l0,-23.59788c0,-1.61172 -0.76859,-2.10156 -2.65935,-2.10156c-2.5209,0 -6.72403,0.48984 -13.30522,0.48984l0.97932,4.90366l4.20316,0l0,22.33706l-3.64313,0l0,4.83133l18.13863,0zm22.18987,-0.56012l0,-6.02132c-1.05194,0.34915 -2.80209,0.76851 -4.27341,0.76851c-1.53931,0 -2.87003,-0.55995 -3.64085,-2.09933c-0.48964,-0.9113 -0.76857,-2.45071 -0.76857,-4.76286l0,-14.49326l7.49268,0l-0.98169,-4.90366l-6.65154,0l0,-8.33143l-7.63313,1.19026c-2.10153,0.34898 -3.01062,1.53879 -3.01062,3.71091l0,3.43008l-3.99234,0l0,4.90345l3.99234,0l0,14.2846c0,5.88071 1.04958,8.96155 3.08092,10.99281c1.82039,1.82051 4.62022,2.73181 8.12279,2.73181c3.4301,0 6.58127,-0.84084 8.26343,-1.40103m39.54871,-26.60819l-0.97934,-4.90345l-17.64676,0l0,4.90345l3.43008,0l0,18.62592c-1.60959,1.40118 -3.35989,2.31012 -5.3208,2.31012c-2.24207,0 -3.6409,-1.19026 -3.6409,-3.92186l0,-20.30617c0,-1.61168 -0.77075,-2.10156 -2.6615,-2.10156c-2.52097,0 -6.7218,0.48982 -13.30533,0.48982l0.97937,4.90372l4.20319,0l0,17.506c0,3.50043 0.97928,6.1619 2.72949,7.84171c1.8204,1.75021 4.55225,2.73198 7.42459,2.73198c2.72955,0 6.02124,-0.84129 9.59189,-3.57288l0,4.2733c0,2.09918 -0.27881,3.98987 -1.19016,5.25043c-1.12,1.47131 -3.15121,2.31261 -6.0213,2.31261c-2.94266,0 -5.883,-0.56235 -8.82339,-1.61201l0,6.79208c2.23981,0.70071 6.23209,1.33078 9.73242,1.33078c9.03424,0 14.14648,-3.92213 16.10739,-9.17238c0.9794,-2.66151 0.9794,-6.16199 0.9794,-9.243l0,-21.77954c0,-1.96098 0.97937,-2.65903 2.59131,-2.65903l1.82034,0l0.00003,0l-0.00003,-0.00005z"/>
   <path fill="#740232" fill-rule="nonzero" id="path46" d="m96.8707,105.0069c0,-3.43213 -2.80208,-5.4613 -6.0213,-5.4613c-3.22147,0 -6.02355,2.02917 -6.02355,5.4613c0,3.43008 2.80208,5.46135 6.02355,5.46135c3.21922,0 6.0213,-2.03127 6.0213,-5.46135m137.77338,0c0,-3.43213 -2.80202,-5.4613 -6.02353,-5.4613c-3.21919,0 -6.02135,2.02917 -6.02135,5.4613c0,3.43008 2.80205,5.46135 6.02135,5.46135c3.22151,0 6.02353,-2.03127 6.02353,-5.46135"/>
   <path fill="#b40756" fill-rule="nonzero" id="path47" d="m64.46138,90.7632zm53.15511,5.67307l0,-4.83155l-1.32938,0c-1.61232,0 -2.38313,-0.35185 -2.38313,-2.03127l0,-34.724c0,-1.61052 -0.76897,-2.10018 -2.65879,-2.10018c-2.52097,0 -6.72498,0.48966 -13.30614,0.48966l0.97935,4.90228l4.20311,0l0,33.46349l-3.64323,0l0,4.83155l18.13824,0l0,0l-0.00005,0l0.00002,0z"/>
   <path fill="#b40756" fill-rule="nonzero" id="path22" d="m208.71397,96.41994l0,-4.8388l-1.33304,0c-1.6123,0 -2.38673,-0.27934 -2.38673,-2.03493l0,-15.49577c0,-3.58014 -0.97939,-6.24436 -2.73134,-7.92744c-1.82455,-1.82272 -4.55951,-2.73497 -7.43414,-2.73497c-4.35091,0 -8.13597,1.82454 -10.80023,4.20766c-0.35004,-0.56039 -0.77263,-1.05011 -1.26411,-1.47269c-1.82089,-1.82272 -4.55585,-2.73497 -7.43048,-2.73497c-2.45567,0 -5.96144,0.91224 -9.32938,3.57653l0,-1.05011c0,-1.61417 -0.7708,-2.10384 -2.66426,-2.10384c-2.52277,0 -6.73045,0.48966 -13.32303,0.48966l0.97939,4.91136l4.21127,0l0,22.36949l-3.64903,0l0,4.8388l17.8136,0l0,-4.8388l-0.9812,0c-1.61414,0 -2.38673,-0.35368 -2.38673,-2.03493l0,-16.68913c1.54343,-1.40195 3.2972,-2.31603 5.1217,-2.31603c2.2435,0 3.57651,1.26233 3.57651,3.92838l0,17.11171l-2.94894,0l0,4.8388l17.11171,0l0,-4.8388l-0.97932,0c-1.616,0 -2.38678,-0.27934 -2.38678,-2.03493l0,-15.49577c0,-0.42258 -0.06886,-0.84517 -0.06886,-1.26227c1.7538,-1.616 3.50577,-2.24713 5.18698,-2.24713c2.24712,0 3.58015,1.26233 3.58015,3.92838l0,17.11171l-2.9454,0l0,4.8388l17.46179,0l-0.00005,0l-0.00003,0zm-73.66652,-7.57377c-0.56226,0.49149 -2.10385,1.19337 -3.50581,1.19337c-2.38673,0 -3.85943,-1.54704 -3.85943,-3.85942c0,-3.08321 2.73495,-5.60963 7.3652,-5.88892l0,8.55497l0.00005,0zm15.28719,7.57377l0,-4.8388l-2.45567,0c-1.33302,0 -2.0349,-0.56223 -2.0349,-1.96419l0,-14.23345c0,-8.98115 -5.74927,-11.99546 -13.95416,-11.99546c-3.57654,0 -7.99635,0.7726 -11.43139,2.03492l0,5.96143c4.20947,-1.68484 7.50302,-2.17274 9.95872,-2.17274c2.94534,0 4.63022,1.25866 4.63022,4.13693l0,1.96053c-10.31236,0.21404 -17.6032,4.35096 -17.6032,11.71252c0,7.22374 4.9077,10.30872 10.37764,10.30872c3.92837,0 7.71342,-1.89163 9.18972,-3.43684c0.83609,1.82455 2.87463,2.52642 5.25774,2.52642l8.06529,0l0,0l-0.00006,0l0.00006,0z"/>
 </g>
</svg>